<svg xmlns="http://www.w3.org/2000/svg" viewBox="0 0 8191.98 8191.92"><defs><style>.cls-1{fill:#fff;}</style></defs><g id="Layer_2" data-name="Layer 2"><g id="Layer_1-2" data-name="Layer 1"><path class="cls-1" d="M8185.86,2786.73c-1.9-9.93-3.52-19.83-6.17-29.57-1.67-5.85-3.64-11.35-5.51-17.1q-4-13-9.07-25.61c-2.43-5.82-5.18-11.45-7.84-17.08q-5.52-11.94-12-23.35c-3.07-5.62-6.63-10.93-10-16.31a353.87,353.87,0,0,0-26.94-36.55q-8.35-9.84-17.39-19.07c-4.65-4.64-9.29-9.29-14.16-13.79q-9.61-8.78-20-16.63c-5.28-4.11-10.47-8.34-16-12.07-2-1.4-3.73-3.07-5.82-4.42L4291.19,59.17a351.63,351.63,0,0,0-390.43,0L156.74,2555.1c-2.08,1.3-3.71,3-5.82,4.43-5.51,3.83-10.69,7.93-16,12q-10.21,8-20,16.54-7.26,6.63-14,13.76c-6.17,6.19-11.89,12.48-17.52,19.09-4.15,5-8.16,9.93-12,15.46-5.29,6.93-10.15,14-14.89,21.41-3.42,5.4-6.84,10.69-10.06,16.32q-6.45,11.31-11.89,23.17c-2.66,5.63-5.51,11.38-7.84,17.11-3.42,8.38-6.39,17-9.14,25.58-1.87,5.77-3.84,11.38-5.41,16.54-2.56,9.68-4.42,19.51-6.19,29.56-1,5.09-2.21,10-2.88,15.24a352.85,352.85,0,0,0-3.07,46V5343.86a318.55,318.55,0,0,0,3.29,46c.79,5.53,2.24,9.93,3.32,15.24,1.77,9.92,3.29,19.83,6.61,29.78,1.55,5.51,3.29,11,5.51,17.08,2.75,8.82,5.5,17.67,8.82,25.73,2.31,5.51,5.5,11,7.72,16.54,3.63,7.72,7.74,15.43,12.16,23.5,3.07,5.5,6.59,11,9.93,16.09a174.86,174.86,0,0,0,15.43,21c3.86,5.53,7.74,9.92,12.17,15.23,5.6,6.61,11,13.25,17.62,19.1,4.52,4.37,8.82,9.93,14.33,13.22,6.39,5.53,13.24,11,19.83,16.76,5.31,4.42,11.06,7.74,15.46,12,2.11,1.08,3.32,3.3,5.53,4.28l3743,2497.29A345.87,345.87,0,0,0,4096,8191.91a353.74,353.74,0,0,0,195.26-59.2l3744-2496c2.09-1.28,3.83-2.85,5.83-4.3,5.5-3.83,10.69-7.94,16-12,6.84-5.43,13.57-11,20-16.76,4.84-4.33,9.46-9.07,14.11-13.69a319.73,319.73,0,0,0,29.44-34.31c5.31-6.95,10.17-14.11,14.92-21.4,3.41-5.29,6.85-10.7,10.05-16.1,4.42-7.74,8.25-15.56,12-23.5,2.65-5.62,5.46-11.25,7.84-17,3.42-8.5,6.29-17.1,9.07-25.73,1.84-5.73,3.83-11.35,5.5-17.08,2.56-9.68,4.33-19.66,6.2-29.56.88-5.09,2.23-10.06,2.75-15.24a349.63,349.63,0,0,0,3.1-46V2848a375.94,375.94,0,0,0-3.1-46c-.86-5.4-2.53-9.78-3.61-15.21h.54ZM4095.94,4928.65,2851,4096l1245-832.8L5341,4096ZM3744,2651.68,2217.86,3672.49,986,2848.36,3744,1009.71v1642h0ZM1584.77,4095.85l-880.55,589V3506.92l880.55,589Zm633.12,423.84L3744.06,5540.36v1642L986,5343.46l1231.93-824v.23ZM4448,5540.17,5974.11,4519.49l1232,824L4448,7182.12V5540.17Zm2159.27-1444.1L7487.91,3507V4685.08l-880.65-589.23v.22Zm-633.12-423.61L4448,2651.78V1009.71L7206.14,2848.39l-1232,824.05h0Z"/></g></g></svg>