<svg xmlns="http://www.w3.org/2000/svg" viewBox="0 0 630.96 630.95"><defs><style>.cls-1{fill:#223c72;}.cls-2{fill:#efebe7;}.cls-3{fill:#ed3726;}.cls-4{fill:#2f3e67;}</style></defs><g id="Layer_2" data-name="Layer 2"><g id="Layer_1-2" data-name="Layer 1"><path class="cls-1" d="M9.32,239.7C51.16,70.57,222.17-32.54,391.26,9.32S663.49,222.14,621.65,391.24,408.82,663.49,239.7,621.63-32.55,408.8,9.32,239.7"/><path class="cls-2" d="M539.23,93.09,412.39,177.64V15.34Q402,12,391.26,9.31a313.94,313.94,0,0,0-173.52,6.26V177.66L91.4,93.45A313.45,313.45,0,0,0,23,197.41l33.46,22.31H15q-3.13,9.83-5.67,20A313.81,313.81,0,0,0,16,414.37H57.27L24.18,436.43A317.07,317.07,0,0,0,93.6,539.69L217.74,457V615.34q10.78,3.51,22,6.29a313.82,313.82,0,0,0,172.69-6V457L537,540a313.36,313.36,0,0,0,69.61-103.14l-33.79-22.52H615q3.74-11.34,6.66-23.13A314,314,0,0,0,616,219.72H573.68L607.79,197A317,317,0,0,0,539.23,93.09"/><path class="cls-3" d="M169.22,219.72,52.1,141.82A312.72,312.72,0,0,0,31,179.05l61.14,40.67Zm409.15-78.51a315.09,315.09,0,0,0-26-34l-140,93.1v19.39h47.95ZM53,490.31a317,317,0,0,0,26,33.9L217.74,432V414.37H167.17ZM626.09,260.25H371.85V5.17a313.62,313.62,0,0,0-113.57,0v255H5a313.53,313.53,0,0,0,.49,113.54H258.28V625.63a313.73,313.73,0,0,0,113.57.24V373.79H625.44a314,314,0,0,0,.65-113.54m-163,154.12L577.83,490.7a313.88,313.88,0,0,0,21.26-37.1l-59-39.23Z"/><path class="cls-4" d="M412.39,48.17V68.63a36.68,36.68,0,0,0,1.9-11,23.1,23.1,0,0,0-1.9-9.45"/></g></g></svg>