<svg xmlns="http://www.w3.org/2000/svg" viewBox="0 0 64 62.43"><defs><style>.cls-1{fill:#fff;fill-rule:evenodd;}</style></defs><g id="Layer_2" data-name="Layer 2"><g id="Layer_1-2" data-name="Layer 1"><path class="cls-1" d="M32,0A32,32,0,0,0,21.88,62.37c1.6.3,2.19-.69,2.19-1.54s0-3.28,0-5.95c-8.91,1.93-10.78-3.78-10.78-3.78-1.46-3.7-3.56-4.68-3.56-4.68-2.9-2,.22-2,.22-2,3.22.23,4.91,3.3,4.91,3.3,2.85,4.89,7.49,3.47,9.31,2.66a6.86,6.86,0,0,1,2-4.28c-7.11-.81-14.58-3.56-14.58-15.82a12.42,12.42,0,0,1,3.3-8.59,11.47,11.47,0,0,1,.31-8.46s2.68-.86,8.8,3.28a30.24,30.24,0,0,1,16,0c6.11-4.14,8.79-3.28,8.79-3.28a11.5,11.5,0,0,1,.32,8.46,12.37,12.37,0,0,1,3.29,8.59c0,12.29-7.48,15-14.61,15.79C39,47.11,40,49.06,40,52c0,4.28,0,7.73,0,8.78,0,.85.57,1.85,2.2,1.54A32,32,0,0,0,32,0Z"/></g></g></svg>