<svg xmlns="http://www.w3.org/2000/svg" viewBox="0 0 3334 3334"><defs><style>.cls-1{fill:#fff;fill-rule:evenodd;}</style></defs><g id="Layer_2" data-name="Layer 2"><g id="Layer_1-2" data-name="Layer 1"><path class="cls-1" d="M1465,1354h322v165h5c45-81,155-165,318-165,340,0,403,212,403,488v561H2177V1905c0-119-2-271-175-271-175,0-202,129-202,263v506H1464V1354ZM1667,0c460,0,877,187,1179,488,302,302,488,718,488,1179,0,460-187,877-488,1179-302,302-718,488-1179,488-460,0-877-187-1179-488C186,2544,0,2128,0,1667,0,1207,187,790,488,488,790,186,1206,0,1667,0ZM2760,573c-280-280-666-453-1093-453S853,293,574,573C294,853,121,1239,121,1666s173,814,453,1093c280,280,666,453,1093,453s814-173,1093-453c280-280,453-666,453-1093S3040,852,2760,573ZM1232,1063a175,175,0,1,1-175-175A174.55,174.55,0,0,1,1232,1063ZM882,1354h350V2403H882Z"/></g></g></svg>